<?xml version="1.0" encoding="utf-8"?>
<!-- Generator: Adobe Illustrator 26.0.2, SVG Export Plug-In . SVG Version: 6.00 Build 0)  -->
<svg version="1.1" id="Layer_1" xmlns="http://www.w3.org/2000/svg" xmlns:xlink="http://www.w3.org/1999/xlink" x="0px" y="0px"
	 viewBox="0 0 252 53" style="enable-background:new 0 0 252 53;" xml:space="preserve">
<style type="text/css">
	.st0{fill:#FFFFFF;}
</style>
<path class="st0" d="M11.4,20.4v28.5h12.9c15.5,0,24.5-10.7,24.5-22.3S39.9,4.2,24.4,4.2H11L7.2,0.1h17.1C45.7,0.1,53,15.5,53,26.5
	s-7.3,26.4-28.6,26.4H7.2V16.3"/>
<path class="st0" d="M138.3,0c15.8,0,20.3,11.1,20.3,18.3c0,7.6-4.7,14.3-11.8,17l12.3,17.6h-5.4l-13.2-20.3c5.2-0.4,14-3.6,14-14.2
	c0-5.9-3.3-14.2-16-14.2h-15.4L119,0H138.3z M123.1,20.5v29.3l-4.2,3.2V16.4"/>
<path class="st0" d="M168.4,0l27.9,48.4l-2.6,4.4L163.5,0L168.4,0z M203.9,0h40.9l-30.5,53L183.8,0h4.9l25.6,44.7l23.5-41h-26.9"/>
<path class="st0" d="M67.2,20.4v28.5h12.9c15.5,0,24.5-10.7,24.5-22.3S95.7,4.2,80.2,4.2H66.5L63,0.1h17.2
	c21.3,0,28.7,15.4,28.7,26.4s-7.3,26.4-28.7,26.4H63V16.3"/>
</svg>
